<?xml version="1.0" encoding="UTF-8"?>
<svg version="1.1" xmlns="http://www.w3.org/2000/svg" width="146" height="116">
<path d="M0 0 C3.20768709 4.12643204 3.88886581 8.41439642 4.6875 13.4375 C4.81705078 14.17548828 4.94660156 14.91347656 5.08007812 15.67382812 C5.77310263 19.79897396 6.36957764 23.80936535 6 28 C3.625 30.375 3.625 30.375 1 32 C0.34 32 -0.32 32 -1 32 C-3.98388334 37.76884112 -4.55240649 42.5619535 -4 49 C-2.33725312 53.72570165 -0.22088598 56.31398165 4 59 C5.19625 59.268125 6.3925 59.53625 7.625 59.8125 C11 61 11 61 12.8125 63.9375 C15.1226455 70.7681154 16.86103713 78.82469056 16 86 C13.55224843 90.07958595 11.40556888 91.47898413 7 93 C5.17756757 93.41457644 3.34283402 93.77726664 1.50146484 94.09741211 C0.42198578 94.28778549 -0.65749329 94.47815887 -1.76968384 94.67430115 C-2.9310788 94.87330521 -4.09247375 95.07230927 -5.2890625 95.27734375 C-6.50210052 95.48935928 -7.71513855 95.70137482 -8.9649353 95.91981506 C-11.53835657 96.36859711 -14.11223334 96.8147738 -16.68652344 97.25854492 C-20.56280004 97.92677733 -24.43775341 98.60225516 -28.3125 99.27929688 C-40.01870678 101.31775999 -51.72491341 103.33964255 -63.47622681 105.10325623 C-66.43217205 105.55327685 -69.15602117 106.05200706 -72 107 C-74.65894107 107.08494728 -77.29085377 107.11594796 -79.94921875 107.09765625 C-80.72183548 107.0962413 -81.49445221 107.09482635 -82.29048157 107.09336853 C-84.75619389 107.08777466 -87.22181515 107.07522333 -89.6875 107.0625 C-91.36002473 107.05748421 -93.03255088 107.05292144 -94.70507812 107.04882812 C-98.80342046 107.03780724 -102.90169479 107.02054684 -107 107 C-108.79383984 101.67958228 -110.14321993 96.54867095 -111 91 C-111.14566406 90.1234375 -111.29132813 89.246875 -111.44140625 88.34375 C-111.70051154 85.61286248 -111.76908093 83.63944935 -111 81 C-108.29989955 78.37052592 -105.30207174 76.76428382 -102 75 C-99.13406761 72.13406761 -99.28519499 69.5434569 -98.97265625 65.60546875 C-99.02505841 60.61229163 -100.66685614 57.41156409 -104.125 53.75 C-106.83464556 52.10065053 -108.60434189 51.5909352 -111.625 50.875 C-114.47936975 49.99454764 -115.65763234 49.58919086 -117.17578125 46.9765625 C-117.99076255 44.32682844 -118.52776318 41.73141779 -119 39 C-119.21269531 38.05769531 -119.42539063 37.11539063 -119.64453125 36.14453125 C-120.76996646 30.8803988 -121.50859219 26.28007265 -120 21 C-117.01753412 16.5859505 -112.93721025 16.0391037 -108 15 C-104.98736781 14.46168215 -101.96551253 14.00519189 -98.9375 13.5625 C-93.28459471 12.73536494 -87.69713123 11.74780775 -82.1015625 10.58984375 C-72.09106043 8.55757039 -61.9975797 7.11495751 -51.89477539 5.625 C-42.52960782 4.23877109 -33.25268843 2.75982743 -24.01391602 0.67285156 C-8.42322806 -2.80774269 -8.42322806 -2.80774269 0 0 Z " fill="#F14536" transform="translate(126,9)"/>
<path d="M0 0 C1.85625 0.0309375 1.85625 0.0309375 3.75 0.0625 C4.245 4.5175 4.245 4.5175 4.75 9.0625 C-0.07798108 10.82509627 -4.8297876 11.82911317 -9.875 12.6875 C-10.62523438 12.8215625 -11.37546875 12.955625 -12.1484375 13.09375 C-15.58566034 13.69099794 -18.75045616 14.0625 -22.25 14.0625 C-21.59 17.3625 -20.93 20.6625 -20.25 24.0625 C-19.19941406 23.918125 -18.14882812 23.77375 -17.06640625 23.625 C-9.74781309 22.64744506 -2.65116009 21.79817285 4.75 22.0625 C6.35725635 25.27701269 5.80748185 28.49862536 5.75 32.0625 C3.25159546 32.57188345 0.75176612 33.07013114 -1.75 33.5625 C-2.44609375 33.70558594 -3.1421875 33.84867188 -3.859375 33.99609375 C-8.74087203 34.94527373 -13.27718299 35.19690046 -18.25 35.0625 C-17.92 39.3525 -17.59 43.6425 -17.25 48.0625 C-15.74308594 47.77375 -14.23617187 47.485 -12.68359375 47.1875 C-10.6849579 46.81216932 -8.68625648 46.43718773 -6.6875 46.0625 C-5.69685547 45.87171875 -4.70621094 45.6809375 -3.68554688 45.484375 C1.55072959 44.51018403 6.42372578 43.82345263 11.75 44.0625 C12.245 49.0125 12.245 49.0125 12.75 54.0625 C11.72003906 54.24425781 10.69007812 54.42601562 9.62890625 54.61328125 C8.608573 54.79346802 8.608573 54.79346802 7.56762695 54.97729492 C6.04935249 55.24505167 4.530958 55.51212864 3.01245117 55.77856445 C-0.9791152 56.47991328 -4.96811903 57.19190932 -8.953125 57.9296875 C-10.0814978 58.13597778 -10.0814978 58.13597778 -11.23266602 58.34643555 C-12.66882896 58.60930537 -14.10426383 58.87619476 -15.53881836 59.14770508 C-19.50567544 59.86820501 -23.22677847 60.11252859 -27.25 60.0625 C-27.33547592 59.51792648 -27.42095184 58.97335297 -27.50901794 58.41227722 C-28.39819826 52.75051927 -29.29095074 47.08933289 -30.18579102 41.4284668 C-30.51939298 39.31500499 -30.85208015 37.20139857 -31.18383789 35.08764648 C-31.66052355 32.05153648 -32.14048365 29.01595967 -32.62109375 25.98046875 C-32.76904892 25.03350632 -32.91700409 24.08654388 -33.06944275 23.11088562 C-33.20951248 22.23019913 -33.34958221 21.34951263 -33.49389648 20.44213867 C-33.61603012 19.66714523 -33.73816376 18.89215179 -33.86399841 18.09367371 C-34.23942994 15.87162509 -34.23942994 15.87162509 -35.25 13.0625 C-35.37781786 10.38855036 -35.29391871 7.74154143 -35.25 5.0625 C-34.45303711 4.94656494 -33.65607422 4.83062988 -32.83496094 4.71118164 C-29.22299861 4.1845468 -25.61149809 3.6548086 -22 3.125 C-20.11861328 2.85139648 -20.11861328 2.85139648 -18.19921875 2.57226562 C-16.39130859 2.30639648 -16.39130859 2.30639648 -14.546875 2.03515625 C-13.43666992 1.87281494 -12.32646484 1.71047363 -11.18261719 1.54321289 C-1.60496957 -0.02674949 -1.60496957 -0.02674949 0 0 Z " fill="#FDF5F3" transform="translate(88.25,34.9375)"/>
<path d="M0 0 C0.66 0.66 1.32 1.32 2 2 C1.625 5.625 1.625 5.625 1 9 C1.99 9.33 2.98 9.66 4 10 C4.02686553 11.97909398 4.04633375 13.95828971 4.0625 15.9375 C4.07410156 17.03964844 4.08570312 18.14179687 4.09765625 19.27734375 C4 22 4 22 3 23 C-2.36437132 24.00581962 -7.55299453 24.11116338 -13 24 C-13 23.67 -13 23.34 -13 23 C-7.72 22.34 -2.44 21.68 3 21 C2.505 16.05 2.505 16.05 2 11 C-0.18689453 11.34224609 -0.18689453 11.34224609 -2.41796875 11.69140625 C-4.34107828 11.98221793 -6.26425919 12.27255784 -8.1875 12.5625 C-9.14720703 12.71396484 -10.10691406 12.86542969 -11.09570312 13.02148438 C-12.02705078 13.16005859 -12.95839844 13.29863281 -13.91796875 13.44140625 C-14.77156982 13.57232666 -15.6251709 13.70324707 -16.50463867 13.83813477 C-19.19195204 14.01245125 -21.39390077 13.63876982 -24 13 C-24.33 9.7 -24.66 6.4 -25 3 C-21.58516526 2.30205571 -18.1686441 1.61630024 -14.75 0.9375 C-13.78191406 0.73833984 -12.81382813 0.53917969 -11.81640625 0.33398438 C-10.88183594 0.15029297 -9.94726562 -0.03339844 -8.984375 -0.22265625 C-8.12553711 -0.39547119 -7.26669922 -0.56828613 -6.38183594 -0.74633789 C-3.89991262 -1.01065916 -2.33017284 -0.86550173 0 0 Z " fill="#F04839" transform="translate(91,46)"/>
<path d="M0 0 C-1 2 -1 2 -3.375 3 C-15.10720968 6.23647164 -27.84043154 8.21824866 -40 8 C-40 8.66 -40 9.32 -40 10 C-41.98 10 -43.96 10 -46 10 C-46.66 11.32 -47.32 12.64 -48 14 C-48.66 14 -49.32 14 -50 14 C-50 16.31 -50 18.62 -50 21 C-49.34 21 -48.68 21 -48 21 C-47.92652344 22.10408203 -47.92652344 22.10408203 -47.8515625 23.23046875 C-47.77679688 24.20628906 -47.70203125 25.18210937 -47.625 26.1875 C-47.55539063 27.15042969 -47.48578125 28.11335938 -47.4140625 29.10546875 C-46.65724581 34.39604578 -44.95852156 37.43733059 -41 41 C-42.98 40.67 -44.96 40.34 -47 40 C-53.38945233 20.36308316 -53.38945233 20.36308316 -51 12 C-48.01753412 7.5859505 -43.93721025 7.0391037 -39 6 C-35.9873292 5.46167525 -32.96528749 5.00687988 -29.9375 4.5625 C-22.60019974 3.45333974 -15.35408374 2.11867664 -8.1015625 0.55078125 C-5.31404561 0.05576881 -2.82077157 -0.11092922 0 0 Z " fill="#8D3134" transform="translate(57,18)"/>
<path d="M0 0 C1.65 1.32 3.3 2.64 5 4 C4.33989524 6.84550012 3.48275034 9.52325999 2.4375 12.25 C2.16808594 12.95640625 1.89867187 13.6628125 1.62109375 14.390625 C1.41613281 14.92171875 1.21117187 15.4528125 1 16 C0.34 16 -0.32 16 -1 16 C-0.34 17.98 0.32 19.96 1 22 C-3.95 22.495 -3.95 22.495 -9 23 C-9.33 25.97 -9.66 28.94 -10 32 C-9.34 32 -8.68 32 -8 32 C-7.83191581 34.10405391 -7.66558052 36.20824758 -7.5 38.3125 C-7.4071875 39.48425781 -7.314375 40.65601563 -7.21875 41.86328125 C-7.07635011 43.905194 -7 45.9531279 -7 48 C-7.66 47.67 -8.32 47.34 -9 47 C-10.38584911 42.07324285 -11.19036835 37.0477035 -12 32 C-12.16757813 31.00742188 -12.33515625 30.01484375 -12.5078125 28.9921875 C-12.75882678 26.34439174 -12.84097178 24.52763991 -12 22 C-9.28523269 19.38880815 -6.30093934 17.76367878 -3 16 C-0.54667367 13.54667367 -0.64636312 12.51201372 -0.375 9.125 C-0.30023438 8.26132813 -0.22546875 7.39765625 -0.1484375 6.5078125 C-0.02022929 4.34176846 0 2.16983505 0 0 Z " fill="#AA3A38" transform="translate(27,68)"/>
<path d="M0 0 C3 3 3 3 3.1875 6.1875 C3.0946875 7.5796875 3.0946875 7.5796875 3 9 C4.44246094 8.52626953 4.44246094 8.52626953 5.9140625 8.04296875 C10.37273673 6.7705058 14.76132904 6.51813363 19.375 6.3125 C20.19355469 6.26544922 21.01210937 6.21839844 21.85546875 6.16992188 C23.90181287 6.06641691 25.95122388 6.02745782 28 6 C29 7 29 7 29.1328125 9.6875 C29.13023438 10.780625 29.12765625 11.87375 29.125 13 C29.12886719 14.6396875 29.12886719 14.6396875 29.1328125 16.3125 C29 19 29 19 28 20 C22.63562868 21.00581962 17.44700547 21.11116338 12 21 C12 20.67 12 20.34 12 20 C17.28 19.34 22.56 18.68 28 18 C27.505 13.05 27.505 13.05 27 8 C24.81310547 8.34224609 24.81310547 8.34224609 22.58203125 8.69140625 C20.65892172 8.98221793 18.73574081 9.27255784 16.8125 9.5625 C15.85279297 9.71396484 14.89308594 9.86542969 13.90429688 10.02148438 C12.97294922 10.16005859 12.04160156 10.29863281 11.08203125 10.44140625 C10.22843018 10.57232666 9.3748291 10.70324707 8.49536133 10.83813477 C5.80804796 11.01245125 3.60609923 10.63876982 1 10 C0.67 6.7 0.34 3.4 0 0 Z " fill="#DF4C40" transform="translate(66,49)"/>
<path d="M0 0 C1.79244141 0.01740234 1.79244141 0.01740234 3.62109375 0.03515625 C5.41740234 0.04869141 5.41740234 0.04869141 7.25 0.0625 C8.17683594 0.07410156 9.10367188 0.08570312 10.05859375 0.09765625 C10.05859375 0.42765625 10.05859375 0.75765625 10.05859375 1.09765625 C8.95346436 1.27417725 7.84833496 1.45069824 6.7097168 1.63256836 C2.61116263 2.28790682 -1.4868543 2.94655266 -5.5847168 3.60620117 C-7.35866031 3.89128475 -9.13274842 4.17547015 -10.90698242 4.45874023 C-13.45660291 4.86596633 -16.00568666 5.27641543 -18.5546875 5.6875 C-19.74545647 5.87662209 -19.74545647 5.87662209 -20.96028137 6.06956482 C-24.05409094 6.57110163 -26.962321 7.10462783 -29.94140625 8.09765625 C-31.66935977 8.16568592 -33.3997599 8.1826127 -35.12890625 8.16015625 C-36.48048828 8.14662109 -36.48048828 8.14662109 -37.859375 8.1328125 C-38.54644531 8.12121094 -39.23351563 8.10960938 -39.94140625 8.09765625 C-39.61140625 7.43765625 -39.28140625 6.77765625 -38.94140625 6.09765625 C-36.69140625 5.71875 -36.69140625 5.71875 -33.94140625 5.53515625 C-30.63381006 5.56285087 -30.63381006 5.56285087 -27.94140625 4.09765625 C-25.1016809 3.77414324 -22.26066888 3.58461335 -19.41015625 3.37890625 C-17.00004575 3.3638036 -17.00004575 3.3638036 -15.94140625 2.09765625 C-12.84097852 1.77319288 -9.73933375 1.58431184 -6.62890625 1.37890625 C-3.43170973 1.04431592 -3.29912629 0.10953275 0 0 Z " fill="#9E3938" transform="translate(83.94140625,107.90234375)"/>
<path d="M0 0 C2.64 0 5.28 0 8 0 C7.25 1.9375 7.25 1.9375 6 4 C3.875 4.75 3.875 4.75 2 5 C2.33 6.98 2.66 8.96 3 11 C3.99 10.67 4.98 10.34 6 10 C7.39439664 9.93334624 8.79169875 9.91461801 10.1875 9.9375 C12.0746875 9.9684375 12.0746875 9.9684375 14 10 C14.33 9.01 14.66 8.02 15 7 C17.3431213 7.25561323 19.67843403 7.59270772 22 8 C22.33 8.66 22.66 9.32 23 10 C20.27172635 10.50534727 17.54255306 11.00443845 14.8125 11.5 C14.04357422 11.64308594 13.27464844 11.78617188 12.48242188 11.93359375 C11.73154297 12.06894531 10.98066406 12.20429687 10.20703125 12.34375 C9.5210083 12.46943359 8.83498535 12.59511719 8.12817383 12.72460938 C6 13 6 13 1 13 C0.67 8.71 0.34 4.42 0 0 Z " fill="#E75044" transform="translate(70,70)"/>
<path d="M0 0 C-1 2 -1 2 -3.375 3 C-15.04822281 6.2201994 -26.92656889 7.2357069 -39 7 C-39 6.67 -39 6.34 -39 6 C-37.20369141 5.72736328 -37.20369141 5.72736328 -35.37109375 5.44921875 C-26.22362093 4.04227817 -17.14857865 2.50662177 -8.1015625 0.55078125 C-5.31404561 0.05576881 -2.82077157 -0.11092922 0 0 Z " fill="#923536" transform="translate(57,18)"/>
<path d="M0 0 C1.010625 0.78375 2.02125 1.5675 3.0625 2.375 C5.8330226 4.39809967 7.28161056 5.06570913 10.75 5.875 C14 7 14 7 15.9375 10.1875 C17.00006258 14.00022454 17.24089387 17.06540005 17 21 C14.62579392 18.62579392 14.74641694 17.79382735 14.375 14.5625 C13.99436875 12.13314925 13.99436875 12.13314925 13 10 C10.33936923 8.24441986 8.15609284 7.76357085 5 7 C5 6.34 5 5.68 5 5 C3.35 4.67 1.7 4.34 0 4 C0 2.68 0 1.36 0 0 Z " fill="#A33738" transform="translate(123,63)"/>
<path d="M0 0 C1.88391785 3.26545761 2.49287967 6.28111761 3 10 C4.05058594 9.855625 5.10117188 9.71125 6.18359375 9.5625 C13.50218691 8.58494506 20.59883991 7.73567285 28 8 C27.67 8.66 27.34 9.32 27 10 C26.030625 9.979375 25.06125 9.95875 24.0625 9.9375 C21.12534105 9.64381501 21.12534105 9.64381501 20 11 C17.01293457 11.31783553 14.05797165 11.56177879 11.0625 11.75 C9.80663086 11.85248047 9.80663086 11.85248047 8.52539062 11.95703125 C7.72423828 12.00730469 6.92308594 12.05757812 6.09765625 12.109375 C5.36039307 12.16061523 4.62312988 12.21185547 3.86352539 12.26464844 C3.24856201 12.17731445 2.63359863 12.08998047 2 12 C-0.13586678 8.79619983 -0.23132175 7.98060033 -0.125 4.3125 C-0.10695313 3.50425781 -0.08890625 2.69601563 -0.0703125 1.86328125 C-0.04710938 1.24839844 -0.02390625 0.63351563 0 0 Z " fill="#FDDBD4" transform="translate(65,49)"/>
<path d="M0 0 C0 0.33 0 0.66 0 1 C-3.89506508 1.71770287 -7.79114446 2.42959185 -11.68823242 3.13623047 C-13.66185099 3.49533313 -15.63464368 3.8589652 -17.60742188 4.22265625 C-18.85458984 4.44824219 -20.10175781 4.67382812 -21.38671875 4.90625 C-23.10701294 5.22045898 -23.10701294 5.22045898 -24.86206055 5.54101562 C-27.63757591 5.94698846 -30.20239814 6.09164953 -33 6 C-22.5661313 0.58984586 -11.63529976 -0.41971021 0 0 Z " fill="#95383A" transform="translate(127,102)"/>
<path d="M0 0 C2.625 0.375 2.625 0.375 5 1 C5.02686553 2.97909398 5.04633375 4.95828971 5.0625 6.9375 C5.07410156 8.03964844 5.08570312 9.14179687 5.09765625 10.27734375 C5 13 5 13 4 14 C-1.36437132 15.00581962 -6.55299453 15.11116338 -12 15 C-12 14.67 -12 14.34 -12 14 C-6.72 13.34 -1.44 12.68 4 12 C3.67 8.7 3.34 5.4 3 2 C1.35 2 -0.3 2 -2 2 C-1.34 1.34 -0.68 0.68 0 0 Z " fill="#E05B4F" transform="translate(90,55)"/>
<path d="M0 0 C0.33 0 0.66 0 1 0 C1 2.64 1 5.28 1 8 C1.66 8 2.32 8 3 8 C3.16808419 10.10405391 3.33441948 12.20824758 3.5 14.3125 C3.5928125 15.48425781 3.685625 16.65601563 3.78125 17.86328125 C3.92364989 19.905194 4 21.9531279 4 24 C2 23 2 23 1.3671875 21.171875 C-0.07565447 14.0721764 -0.20395759 7.22916342 0 0 Z " fill="#BF4240" transform="translate(16,92)"/>
<path d="M0 0 C0 0.33 0 0.66 0 1 C-2.31 1 -4.62 1 -7 1 C-7 1.66 -7 2.32 -7 3 C-8.98 3 -10.96 3 -13 3 C-13.66 4.32 -14.32 5.64 -15 7 C-15.66 7 -16.32 7 -17 7 C-17.33 7.66 -17.66 8.32 -18 9 C-17.6875 6.125 -17.6875 6.125 -17 3 C-11.72346191 -0.51769206 -6.13607598 -0.10579441 0 0 Z " fill="#BD4340" transform="translate(24,25)"/>
<path d="M0 0 C0.66 0.33 1.32 0.66 2 1 C1.67 1.99 1.34 2.98 1 4 C0.70901966 9.04936467 0.68963839 14.08614397 2 19 C0 17.6875 0 17.6875 -2 15 C-2.69937851 9.64080884 -2.79564844 4.74141975 0 0 Z " fill="#9D3738" transform="translate(121,44)"/>
<path d="M0 0 C0.33 0 0.66 0 1 0 C1.3396019 1.87387477 1.67138691 3.74916697 2 5.625 C2.185625 6.66914063 2.37125 7.71328125 2.5625 8.7890625 C2.98715797 11.90574865 3.07545206 14.85930812 3 18 C2.34 18.33 1.68 18.66 1 19 C-0.00926479 14.84373632 -0.10239579 10.95634906 -0.0625 6.6875 C-0.05347656 5.43324219 -0.04445312 4.17898437 -0.03515625 2.88671875 C-0.01775391 1.45779297 -0.01775391 1.45779297 0 0 Z " fill="#983536" transform="translate(129,19)"/>
<path d="M0 0 C1.65 1.32 3.3 2.64 5 4 C4.21302675 7.41021743 3.12880057 10.68885166 2 14 C1.67 14 1.34 14 1 14 C0.67 9.38 0.34 4.76 0 0 Z " fill="#C9423B" transform="translate(27,68)"/>
<path d="M0 0 C2.3431213 0.25561323 4.67843403 0.59270772 7 1 C7.33 1.66 7.66 2.32 8 3 C2.29309366 3.99250545 -3.21408489 4.10477512 -9 4 C-9 3.67 -9 3.34 -9 3 C-6.36 3 -3.72 3 -1 3 C-0.67 2.01 -0.34 1.02 0 0 Z " fill="#E44A40" transform="translate(85,77)"/>
<path d="M0 0 C-2.66389689 2.66389689 -4.40323509 2.98142077 -8.13671875 3.09765625 C-9.30847656 3.08605469 -10.48023437 3.07445312 -11.6875 3.0625 C-13.45673828 3.04896484 -13.45673828 3.04896484 -15.26171875 3.03515625 C-16.16535156 3.02355469 -17.06898437 3.01195312 -18 3 C-18 2.67 -18 2.34 -18 2 C-11.93184478 0.77100654 -6.20104812 -0.27560214 0 0 Z " fill="#A83C3E" transform="translate(101,11)"/>
<path d="M0 0 C0.99 0.33 1.98 0.66 3 1 C3 1.66 3 2.32 3 3 C5.97 3 8.94 3 12 3 C12 3.33 12 3.66 12 4 C6.06 4.495 6.06 4.495 0 5 C0 3.35 0 1.7 0 0 Z " fill="#FEE1D7" transform="translate(61,90)"/>
<path d="M0 0 C1.5 1.125 1.5 1.125 3 3 C3.1875 6.1875 3.1875 6.1875 3 9 C3.99 9.33 4.98 9.66 6 10 C4.68 10.33 3.36 10.66 2 11 C0.80712589 7.12315913 0 4.08378077 0 0 Z " fill="#DD5850" transform="translate(66,49)"/>
<path d="M0 0 C0.66 0 1.32 0 2 0 C2 1.65 2 3.3 2 5 C3.32 5 4.64 5 6 5 C6 5.66 6 6.32 6 7 C5.34 7 4.68 7 4 7 C3.67 8.32 3.34 9.64 3 11 C2.67 11 2.34 11 2 11 C1.34 7.37 0.68 3.74 0 0 Z " fill="#E4483A" transform="translate(99,78)"/>
<path d="M0 0 C2 2 2 2 3 5 C4.29355827 6.37195574 5.62298702 7.71182656 7 9 C4.0625 8.625 4.0625 8.625 1 8 C-0.35439668 5.29120665 -0.06501451 2.99066732 0 0 Z " fill="#A73E3C" transform="translate(9,50)"/>
<path d="M0 0 C0.66 1.32 1.32 2.64 2 4 C4.64 4 7.28 4 10 4 C10 4.33 10 4.66 10 5 C6.7 5.33 3.4 5.66 0 6 C0 4.02 0 2.04 0 0 Z " fill="#DB574F" transform="translate(71,77)"/>
<path d="M0 0 C3 0.6875 3 0.6875 6 1.6875 C6 2.3475 6 3.0075 6 3.6875 C0.06 2.6975 0.06 2.6975 -6 1.6875 C-3 -0.3125 -3 -0.3125 0 0 Z " fill="#95313D" transform="translate(120,7.3125)"/>
<path d="M0 0 C1.65 0 3.3 0 5 0 C4.34 2.64 3.68 5.28 3 8 C1.58622659 5.36095629 0.62759865 2.92879371 0 0 Z " fill="#E6463A" transform="translate(49,39)"/>
</svg>
